<svg width="183" height="183" xmlns="http://www.w3.org/2000/svg">

 <g>
  <title>Layer 1</title>
  <path transform="rotate(-2.12633 59.9299 90)" d="m62.5,7c0,1 0.09661,6.0169 -1,12c-0.91926,5.01547 -1.98162,8.712 -3,14c-0.75643,3.92783 -0.49346,7.87856 -1,11c-0.32037,1.97417 0,5 0,11c0,3 0,6 0,7c0,1 0,2 0,3c0,2 0,7 0,11c0,2 0,6 0,9c0,2 0,8 0,14c0,8 0,14 0,20c0,3 0,7 0,10c0,6 0,10 0,12c0,3 0,4 0,5c0,1 0,4 0,6c0,4 0,6 0,7c0,1 0,3 0,4c0,3 0,6 0,8l0,1l0,1l0,-2" id="svg_2" stroke="#000" fill="none"/>
  <path stroke="#000" d="m130.5,5c0,1.03846 0,2.07692 0,4.15385c0,5.19231 0,9.34615 0,12.46154c0,2.07692 -0.3816,6.25604 -0.75221,11.42308c-0.37794,5.26937 -1.87767,9.25039 -2.25662,13.5c-0.36763,4.12273 -0.73153,5.86471 -1.50441,10.38462c-0.51847,3.03204 -0.18168,7.217 -1.50441,16.61539c-0.8727,6.20075 -2.24677,11.17085 -3.00882,17.65385c-0.60245,5.12526 -1.49059,10.08554 -2.25662,15.57692c-0.42674,3.05917 -0.37118,7.14312 -0.75221,10.38462c-0.24098,2.0501 0,5.19231 0,11.42308c0,4.15385 0,6.23077 0,8.30769c0,1.03846 0,3.11538 0,7.26923c0,3.11538 0,6.23077 0,7.26923c0,1.03846 0,2.07692 0,5.19231c0,2.07692 0,5.19231 0,7.26923l0,2.07692l0,1.03846" id="svg_3" fill="none"/>
  <path d="m-1.5,65c2,0 7.9954,-1.03272 15,-2c14.99049,-2.07007 23.90779,-3.49623 28,-4c2.97752,-0.36655 12,0 21,0c7,0 11,-1 13,-1c5,0 13.86484,-0.99594 25,-2c8.96363,-0.80825 22,0 33,0c10,0 18.09023,0.05446 23,1c5.28799,1.01838 9.28912,2.04869 14,4c3.3311,1.37978 6.90283,2.22421 9,3c3.867,1.4305 5,2 6,2l-1,0" id="svg_4" stroke="#000" fill="none"/>
  <path stroke="#000" d="m-0.5,123c1.05233,0 7.46794,-1.53374 13.68023,-3c9.68885,-2.28682 20.98123,-5.49829 27.36047,-6c2.09748,-0.16496 3.15698,0 7.36628,0c6.31395,0 12.62791,0 18.94186,0c4.2093,0 7.36628,0 11.57558,0c5.26163,0 9.55347,0.78985 12.62791,2c2.17395,0.85571 5.26163,1 7.36628,1c3.15698,0 6.31395,0 8.4186,0c5.26163,0 11.52646,0.49903 19.99419,1c3.15088,0.18641 6.31395,0 9.47093,0c3.15698,0 8.34052,1.49755 13.68023,2c4.18881,0.39415 8.4186,0 13.68023,0c3.15698,0 7.44639,-0.38268 8.4186,0c1.37493,0.5412 2.10465,1 3.15698,1l2.10465,1l1.05233,0l2.10465,1" id="svg_5" fill="none"/>
 </g>
</svg>